<svg width="7" height="14" viewBox="0 0 7 14" fill="none" xmlns="http://www.w3.org/2000/svg">
<path fill-rule="evenodd" clip-rule="evenodd" d="M3.11206 4.42651C2.65088 2.21118 1.26318 0.545288 0.421021 0.195801V4.53882C1.26318 4.52844 2.37134 4.48547 3.11206 4.42651ZM6.02551 3.96301C5.87207 4.01013 5.25 4.18372 4.01965 4.32935C3.74207 2.85291 3.24097 1.59473 2.58752 0.686401C4.08557 1.33569 5.30383 2.50452 6.02551 3.96301ZM0.421021 5.51733C1.26318 5.50635 2.44348 5.45996 3.22717 5.3949C3.29175 5.91309 3.30798 6.44946 3.30798 7.0011C3.30798 7.70959 3.28271 8.39673 3.17834 9.04602C2.40674 8.98364 1.26318 8.93872 0.421021 8.92871V5.51733ZM0.421021 9.90723V13.8068C1.26318 13.4808 2.51001 12.0077 3.00964 10.0125C2.28821 9.95691 1.26318 9.91736 0.421021 9.90723ZM2.58752 13.3163C3.17639 12.4978 3.64551 11.3992 3.93494 10.1088C4.90271 10.2202 5.51245 10.3499 5.81982 10.4274C5.07971 11.7118 3.94666 12.7245 2.58752 13.3163ZM4.16785 5.29675C4.31555 6.57568 4.29565 7.86853 4.10889 9.14233C5.30383 9.28235 5.9834 9.45142 6.25378 9.53027C6.56531 8.74658 6.74219 7.89465 6.74219 7.0011C6.7417 6.11792 6.57019 5.24329 6.23694 4.42542L6.3949 4.8717C6.35059 4.88745 5.68079 5.11511 4.16785 5.29675Z" fill="white"/>
</svg>
